<?xml version="1.0" encoding="utf-8"?>
<!-- Generator: Adobe Illustrator 21.0.2, SVG Export Plug-In . SVG Version: 6.00 Build 0)  -->
<svg version="1.1" xmlns="http://www.w3.org/2000/svg" xmlns:xlink="http://www.w3.org/1999/xlink" x="0px" y="0px"
	 viewBox="0 0 24 24" style="enable-background:new 0 0 24 24;" xml:space="preserve">
<style type="text/css">
	.st0{fill:#FFFFFF;}
	.st1{fill:#CCE7FF;}
	.st2{fill:none;stroke:#1078FF;stroke-linecap:round;stroke-linejoin:round;stroke-miterlimit:10;}
	.st3{fill:none;stroke:#1078FF;stroke-linejoin:round;stroke-miterlimit:10;}
	.st4{fill:none;stroke:#1078FF;stroke-linecap:round;stroke-miterlimit:10;}
	.st5{fill:none;}
</style>
<g id="Duotone">
	<polygon class="st0" points="20.5,5.5 18.5,5.5 16.5,5.5 16.5,3.7 11.5,0.5 6.5,3.7 6.5,5.5 4.5,5.5 2.5,5.5 0.5,23.5 22.5,23.5 	
		"/>
	<polygon class="st1" points="11.5,0.5 11.5,4 13.5,5.3 13.5,7.3 11.5,8.5 11.5,15.5 16.5,8 16.5,3.7 	"/>
	<polyline class="st2" points="18.5,5.5 20.5,5.5 22.5,23.5 0.5,23.5 2.5,5.5 4.5,5.5 	"/>
	<line class="st2" x1="1.2" y1="17.5" x2="21.8" y2="17.5"/>
	<line class="st2" x1="17.5" y1="10.5" x2="21.1" y2="10.5"/>
	<line class="st2" x1="1.9" y1="10.5" x2="5.5" y2="10.5"/>
	<line class="st2" x1="6" y1="23.5" x2="6.7" y2="13"/>
	<line class="st2" x1="17" y1="23.5" x2="16.3" y2="13"/>
	<polygon class="st2" points="11.5,15.5 16.5,8 16.5,3.7 11.5,0.5 6.5,3.7 6.5,8 	"/>
	<polygon class="st2" points="13.5,7.3 11.5,8.5 9.5,7.3 9.5,5.3 11.5,4 13.5,5.3 	"/>
</g>
<g id="Frames-24px">
	<rect class="st5" width="24" height="24"/>
</g>
</svg>
